# Blender 3.2.2
# www.blender.org
mtllib crystal.mtl
o Plane002
v -0.104127 0.117987 0.000122
v -0.028806 -0.321171 0.028619
v 0.028723 -0.321171 0.028619
v -0.028806 -0.321171 -0.028909
v 0.028723 -0.321171 -0.028909
v 0.000024 0.117987 0.104272
v 0.000024 0.117987 -0.104188
v 0.104175 0.117987 0.000122
v 0.052099 0.217987 0.052197
v -0.052051 0.217987 -0.052033
v -0.052051 0.217987 0.052197
v 0.000014 0.302491 0.000072
v 0.052099 0.217987 -0.052033
v -0.000041 -0.361703 -0.000145
vn -0.0000 0.4918 0.8707
vn 0.7058 -0.0615 0.7058
vn -0.7063 -0.0607 -0.7053
vn -0.7058 -0.0613 0.7058
vn 0.7063 -0.0609 -0.7053
vn -0.0000 -0.3452 -0.9385
vn -0.0000 -0.1690 -0.9856
vn -0.0000 -0.3457 0.9383
vn -0.0000 -0.3457 0.9384
vn -0.0000 -0.1698 0.9855
vn -0.9385 -0.3453 -0.0000
vn -0.9385 -0.3452 -0.0000
vn -0.9856 -0.1690 -0.0000
vn 0.9385 -0.3454 -0.0000
vn 0.9384 -0.3455 -0.0000
vn 0.9856 -0.1693 -0.0000
vn 0.8708 0.4916 -0.0000
vn -0.8709 0.4915 -0.0000
vn -0.0000 0.4920 -0.8706
vn -0.8155 -0.5787 -0.0000
vn -0.0000 -0.5787 -0.8155
vn 0.8155 -0.5787 -0.0000
vn -0.0000 -0.5787 0.8155
vt 0.000000 0.500000
vt 0.000000 0.000000
vt 0.000000 0.500000
vt 0.000000 0.000000
vt 0.500000 1.000000
vt 1.000000 0.000000
vt 0.500000 0.000000
vt 0.000000 1.000000
vt 1.000000 0.500000
vt 1.000000 1.000000
vt 0.000000 1.000000
vt 0.500000 0.000000
vt 0.500000 1.000000
vt 1.000000 0.000000
vt 1.000000 0.500000
vt 1.000000 1.000000
vt 0.500000 1.000000
vt 0.500000 0.000000
vt 0.000000 0.500000
vt 0.500000 0.499904
vt 1.000000 0.500000
vt 0.500000 0.500000
s 1
usemtl 01_-_Default
f 9/17/1 12/20/1 11/19/1 6/11/1
f 9/17/2 6/11/2 3/5/2 8/16/2
f 10/18/3 7/14/3 4/7/3 1/2/3
f 11/19/4 1/2/4 2/3/4 6/11/4
f 13/21/5 8/16/5 5/9/5 7/14/5
f 5/10/6 4/8/6 7/13/7
f 2/4/8 3/6/9 6/12/10
f 4/8/11 2/4/12 1/1/13
f 3/6/14 5/10/15 8/15/16
f 9/17/17 8/16/17 13/21/17 12/20/17
f 10/18/18 1/2/18 11/19/18 12/20/18
f 13/21/19 7/14/19 10/18/19 12/20/19
f 2/4/12 4/8/11 14/22/20
f 4/8/6 5/10/6 14/22/21
f 5/10/15 3/6/14 14/22/22
f 3/6/9 2/4/8 14/22/23
